<svg width="271" height="25" viewBox="0 0 271 25" fill="none" xmlns="http://www.w3.org/2000/svg">
<path d="M7.66016 9.37891H14.457V18.2617C13.5586 18.5586 12.625 18.7969 11.6562 18.9766C10.6875 19.1484 9.58984 19.2344 8.36328 19.2344C6.66016 19.2344 5.21484 18.8984 4.02734 18.2266C2.83984 17.5547 1.9375 16.5625 1.32031 15.25C0.703125 13.9375 0.394531 12.3242 0.394531 10.4102C0.394531 8.61328 0.738281 7.05859 1.42578 5.74609C2.12109 4.43359 3.13281 3.41797 4.46094 2.69922C5.79688 1.98047 7.42578 1.62109 9.34766 1.62109C10.2539 1.62109 11.1484 1.71875 12.0312 1.91406C12.9141 2.10938 13.7148 2.36328 14.4336 2.67578L13.2266 5.58203C12.7031 5.31641 12.1055 5.09375 11.4336 4.91406C10.7617 4.73438 10.0586 4.64453 9.32422 4.64453C8.26953 4.64453 7.35156 4.88672 6.57031 5.37109C5.79688 5.85547 5.19531 6.53516 4.76562 7.41016C4.34375 8.27734 4.13281 9.30078 4.13281 10.4805C4.13281 11.5977 4.28516 12.5898 4.58984 13.457C4.89453 14.3164 5.375 14.9922 6.03125 15.4844C6.6875 15.9688 7.54297 16.2109 8.59766 16.2109C9.11328 16.2109 9.54688 16.1875 9.89844 16.1406C10.2578 16.0859 10.5938 16.0312 10.9062 15.9766V12.4023H7.66016V9.37891ZM23.668 5.65234C24.8789 5.65234 25.9219 5.88672 26.7969 6.35547C27.6719 6.81641 28.3477 7.48828 28.8242 8.37109C29.3008 9.25391 29.5391 10.332 29.5391 11.6055V13.3398H21.0898C21.1289 14.3477 21.4297 15.1406 21.9922 15.7188C22.5625 16.2891 23.3516 16.5742 24.3594 16.5742C25.1953 16.5742 25.9609 16.4883 26.6562 16.3164C27.3516 16.1445 28.0664 15.8867 28.8008 15.543V18.3086C28.1523 18.6289 27.4727 18.8633 26.7617 19.0117C26.0586 19.1602 25.2031 19.2344 24.1953 19.2344C22.8828 19.2344 21.7188 18.9922 20.7031 18.5078C19.6953 18.0234 18.9023 17.2852 18.3242 16.293C17.7539 15.3008 17.4688 14.0508 17.4688 12.543C17.4688 11.0117 17.7266 9.73828 18.2422 8.72266C18.7656 7.69922 19.4922 6.93359 20.4219 6.42578C21.3516 5.91016 22.4336 5.65234 23.668 5.65234ZM23.6914 8.19531C22.9961 8.19531 22.418 8.41797 21.957 8.86328C21.5039 9.30859 21.2422 10.0078 21.1719 10.9609H26.1875C26.1797 10.4297 26.082 9.95703 25.8945 9.54297C25.7148 9.12891 25.4414 8.80078 25.0742 8.55859C24.7148 8.31641 24.2539 8.19531 23.6914 8.19531ZM44.3516 12.4258C44.3516 13.5195 44.2031 14.4883 43.9062 15.332C43.6172 16.1758 43.1914 16.8906 42.6289 17.4766C42.0742 18.0547 41.4023 18.4922 40.6133 18.7891C39.832 19.0859 38.9492 19.2344 37.9648 19.2344C37.043 19.2344 36.1953 19.0859 35.4219 18.7891C34.6562 18.4922 33.9883 18.0547 33.418 17.4766C32.8555 16.8906 32.418 16.1758 32.1055 15.332C31.8008 14.4883 31.6484 13.5195 31.6484 12.4258C31.6484 10.9727 31.9062 9.74219 32.4219 8.73438C32.9375 7.72656 33.6719 6.96094 34.625 6.4375C35.5781 5.91406 36.7148 5.65234 38.0352 5.65234C39.2617 5.65234 40.3477 5.91406 41.293 6.4375C42.2461 6.96094 42.9922 7.72656 43.5312 8.73438C44.0781 9.74219 44.3516 10.9727 44.3516 12.4258ZM35.293 12.4258C35.293 13.2852 35.3867 14.0078 35.5742 14.5938C35.7617 15.1797 36.0547 15.6211 36.4531 15.918C36.8516 16.2148 37.3711 16.3633 38.0117 16.3633C38.6445 16.3633 39.1562 16.2148 39.5469 15.918C39.9453 15.6211 40.2344 15.1797 40.4141 14.5938C40.6016 14.0078 40.6953 13.2852 40.6953 12.4258C40.6953 11.5586 40.6016 10.8398 40.4141 10.2695C40.2344 9.69141 39.9453 9.25781 39.5469 8.96875C39.1484 8.67969 38.6289 8.53516 37.9883 8.53516C37.043 8.53516 36.3555 8.85938 35.9258 9.50781C35.5039 10.1562 35.293 11.1289 35.293 12.4258ZM51.1367 24.7656C49.3086 24.7656 47.9102 24.4453 46.9414 23.8047C45.9805 23.1719 45.5 22.2812 45.5 21.1328C45.5 20.3438 45.7461 19.6836 46.2383 19.1523C46.7305 18.6211 47.4531 18.2422 48.4062 18.0156C48.0391 17.8594 47.7188 17.6055 47.4453 17.2539C47.1719 16.8945 47.0352 16.5156 47.0352 16.1172C47.0352 15.6172 47.1797 15.2031 47.4688 14.875C47.7578 14.5391 48.1758 14.2109 48.7227 13.8906C48.0352 13.5938 47.4883 13.1172 47.082 12.4609C46.6836 11.8047 46.4844 11.0312 46.4844 10.1406C46.4844 9.1875 46.6914 8.37891 47.1055 7.71484C47.5273 7.04297 48.1367 6.53125 48.9336 6.17969C49.7383 5.82812 50.7148 5.65234 51.8633 5.65234C52.1055 5.65234 52.3867 5.66797 52.707 5.69922C53.0273 5.73047 53.3203 5.76562 53.5859 5.80469C53.8594 5.84375 54.043 5.875 54.1367 5.89844H58.707V7.71484L56.6562 8.24219C56.8438 8.53125 56.9844 8.83984 57.0781 9.16797C57.1719 9.49609 57.2188 9.84375 57.2188 10.2109C57.2188 11.6172 56.7266 12.7148 55.7422 13.5039C54.7656 14.2852 53.4062 14.6758 51.6641 14.6758C51.25 14.6523 50.8594 14.6211 50.4922 14.582C50.3125 14.7227 50.1758 14.8711 50.082 15.0273C49.9883 15.1836 49.9414 15.3477 49.9414 15.5195C49.9414 15.6914 50.0117 15.8359 50.1523 15.9531C50.3008 16.0625 50.5195 16.1484 50.8086 16.2109C51.1055 16.2656 51.4727 16.293 51.9102 16.293H54.1367C55.5742 16.293 56.668 16.6016 57.418 17.2188C58.1758 17.8359 58.5547 18.7422 58.5547 19.9375C58.5547 21.4688 57.9141 22.6562 56.6328 23.5C55.3594 24.3438 53.5273 24.7656 51.1367 24.7656ZM51.2891 22.4336C52.1406 22.4336 52.8711 22.3516 53.4805 22.1875C54.0977 22.0312 54.5703 21.8047 54.8984 21.5078C55.2266 21.2188 55.3906 20.8711 55.3906 20.4648C55.3906 20.1367 55.293 19.875 55.0977 19.6797C54.9102 19.4922 54.6211 19.3594 54.2305 19.2812C53.8477 19.2031 53.3555 19.1641 52.7539 19.1641H50.9023C50.4648 19.1641 50.0703 19.2344 49.7188 19.375C49.375 19.5156 49.1016 19.7109 48.8984 19.9609C48.6953 20.2188 48.5938 20.5156 48.5938 20.8516C48.5938 21.3438 48.8281 21.7305 49.2969 22.0117C49.7734 22.293 50.4375 22.4336 51.2891 22.4336ZM51.8633 12.4961C52.5352 12.4961 53.0273 12.2891 53.3398 11.875C53.6523 11.4609 53.8086 10.8984 53.8086 10.1875C53.8086 9.39844 53.6445 8.80859 53.3164 8.41797C52.9961 8.01953 52.5117 7.82031 51.8633 7.82031C51.207 7.82031 50.7148 8.01953 50.3867 8.41797C50.0586 8.80859 49.8945 9.39844 49.8945 10.1875C49.8945 10.8984 50.0547 11.4609 50.375 11.875C50.7031 12.2891 51.1992 12.4961 51.8633 12.4961ZM68.1875 5.65234C68.3672 5.65234 68.5742 5.66406 68.8086 5.6875C69.0508 5.70312 69.2461 5.72656 69.3945 5.75781L69.125 9.10938C69.0078 9.07031 68.8398 9.04297 68.6211 9.02734C68.4102 9.00391 68.2266 8.99219 68.0703 8.99219C67.6094 8.99219 67.1602 9.05078 66.7227 9.16797C66.293 9.28516 65.9062 9.47656 65.5625 9.74219C65.2188 10 64.9453 10.3438 64.7422 10.7734C64.5469 11.1953 64.4492 11.7148 64.4492 12.332V19H60.875V5.89844H63.582L64.1094 8.10156H64.2852C64.543 7.65625 64.8633 7.25 65.2461 6.88281C65.6367 6.50781 66.0781 6.21094 66.5703 5.99219C67.0703 5.76562 67.6094 5.65234 68.1875 5.65234ZM77.1406 5.62891C78.8984 5.62891 80.2461 6.01172 81.1836 6.77734C82.1211 7.54297 82.5898 8.70703 82.5898 10.2695V19H80.0938L79.4023 17.2188H79.3086C78.9336 17.6875 78.5508 18.0703 78.1602 18.3672C77.7695 18.6641 77.3203 18.8828 76.8125 19.0234C76.3047 19.1641 75.6875 19.2344 74.9609 19.2344C74.1875 19.2344 73.4922 19.0859 72.875 18.7891C72.2656 18.4922 71.7852 18.0391 71.4336 17.4297C71.082 16.8125 70.9062 16.0312 70.9062 15.0859C70.9062 13.6953 71.3945 12.6719 72.3711 12.0156C73.3477 11.3516 74.8125 10.9844 76.7656 10.9141L79.0391 10.8438V10.2695C79.0391 9.58203 78.8594 9.07812 78.5 8.75781C78.1406 8.4375 77.6406 8.27734 77 8.27734C76.3672 8.27734 75.7461 8.36719 75.1367 8.54688C74.5273 8.72656 73.918 8.95312 73.3086 9.22656L72.125 6.8125C72.8203 6.44531 73.5977 6.15625 74.457 5.94531C75.3242 5.73438 76.2188 5.62891 77.1406 5.62891ZM79.0391 12.9297L77.6562 12.9766C76.5 13.0078 75.6953 13.2148 75.2422 13.5977C74.7969 13.9805 74.5742 14.4844 74.5742 15.1094C74.5742 15.6562 74.7344 16.0469 75.0547 16.2812C75.375 16.5078 75.793 16.6211 76.3086 16.6211C77.0742 16.6211 77.7188 16.3945 78.2422 15.9414C78.7734 15.4883 79.0391 14.8438 79.0391 14.0078V12.9297ZM93.5703 5.65234C95.0469 5.65234 96.2383 6.22656 97.1445 7.375C98.0586 8.52344 98.5156 10.207 98.5156 12.4258C98.5156 13.9102 98.3008 15.1602 97.8711 16.1758C97.4414 17.1836 96.8477 17.9453 96.0898 18.4609C95.332 18.9766 94.4609 19.2344 93.4766 19.2344C92.8438 19.2344 92.3008 19.1562 91.8477 19C91.3945 18.8359 91.0078 18.6289 90.6875 18.3789C90.3672 18.1211 90.0898 17.8477 89.8555 17.5586H89.668C89.7305 17.8711 89.7773 18.1914 89.8086 18.5195C89.8398 18.8477 89.8555 19.168 89.8555 19.4805V24.7656H86.2812V5.89844H89.1875L89.6914 7.59766H89.8555C90.0898 7.24609 90.375 6.92188 90.7109 6.625C91.0469 6.32812 91.4492 6.09375 91.918 5.92188C92.3945 5.74219 92.9453 5.65234 93.5703 5.65234ZM92.4219 8.51172C91.7969 8.51172 91.3008 8.64062 90.9336 8.89844C90.5664 9.15625 90.2969 9.54297 90.125 10.0586C89.9609 10.5742 89.8711 11.2266 89.8555 12.0156V12.4023C89.8555 13.2461 89.9336 13.9609 90.0898 14.5469C90.2539 15.1328 90.5234 15.5781 90.8984 15.8828C91.2812 16.1875 91.8047 16.3398 92.4688 16.3398C93.0156 16.3398 93.4648 16.1875 93.8164 15.8828C94.168 15.5781 94.4297 15.1328 94.6016 14.5469C94.7812 13.9531 94.8711 13.2305 94.8711 12.3789C94.8711 11.0977 94.6719 10.1328 94.2734 9.48438C93.875 8.83594 93.2578 8.51172 92.4219 8.51172ZM105.043 0.765625V4.48047C105.043 5.12891 105.02 5.74609 104.973 6.33203C104.934 6.91797 104.902 7.33203 104.879 7.57422H105.066C105.348 7.12109 105.68 6.75391 106.062 6.47266C106.453 6.19141 106.883 5.98438 107.352 5.85156C107.82 5.71875 108.324 5.65234 108.863 5.65234C109.809 5.65234 110.633 5.82031 111.336 6.15625C112.039 6.48438 112.586 7.00391 112.977 7.71484C113.367 8.41797 113.562 9.33203 113.562 10.457V19H109.988V11.3477C109.988 10.4102 109.816 9.70312 109.473 9.22656C109.129 8.75 108.598 8.51172 107.879 8.51172C107.16 8.51172 106.594 8.67969 106.18 9.01562C105.766 9.34375 105.473 9.83203 105.301 10.4805C105.129 11.1211 105.043 11.9062 105.043 12.8359V19H101.469V0.765625H105.043ZM120.816 5.89844V19H117.242V5.89844H120.816ZM119.035 0.765625C119.566 0.765625 120.023 0.890625 120.406 1.14062C120.789 1.38281 120.98 1.83984 120.98 2.51172C120.98 3.17578 120.789 3.63672 120.406 3.89453C120.023 4.14453 119.566 4.26953 119.035 4.26953C118.496 4.26953 118.035 4.14453 117.652 3.89453C117.277 3.63672 117.09 3.17578 117.09 2.51172C117.09 1.83984 117.277 1.38281 117.652 1.14062C118.035 0.890625 118.496 0.765625 119.035 0.765625ZM129.898 19.2344C128.602 19.2344 127.496 19 126.582 18.5312C125.668 18.0547 124.973 17.3203 124.496 16.3281C124.02 15.3359 123.781 14.0664 123.781 12.5195C123.781 10.918 124.051 9.61328 124.59 8.60547C125.137 7.58984 125.891 6.84375 126.852 6.36719C127.82 5.89062 128.941 5.65234 130.215 5.65234C131.121 5.65234 131.902 5.74219 132.559 5.92188C133.223 6.09375 133.801 6.30078 134.293 6.54297L133.238 9.30859C132.676 9.08203 132.152 8.89844 131.668 8.75781C131.184 8.60938 130.699 8.53516 130.215 8.53516C129.59 8.53516 129.07 8.68359 128.656 8.98047C128.242 9.26953 127.934 9.70703 127.73 10.293C127.527 10.8789 127.426 11.6133 127.426 12.4961C127.426 13.3633 127.535 14.082 127.754 14.6523C127.973 15.2227 128.289 15.6484 128.703 15.9297C129.117 16.2031 129.621 16.3398 130.215 16.3398C130.957 16.3398 131.617 16.2422 132.195 16.0469C132.773 15.8438 133.336 15.5625 133.883 15.2031V18.2617C133.336 18.6055 132.762 18.8516 132.16 19C131.566 19.1562 130.812 19.2344 129.898 19.2344ZM142.297 5.62891C144.055 5.62891 145.402 6.01172 146.34 6.77734C147.277 7.54297 147.746 8.70703 147.746 10.2695V19H145.25L144.559 17.2188H144.465C144.09 17.6875 143.707 18.0703 143.316 18.3672C142.926 18.6641 142.477 18.8828 141.969 19.0234C141.461 19.1641 140.844 19.2344 140.117 19.2344C139.344 19.2344 138.648 19.0859 138.031 18.7891C137.422 18.4922 136.941 18.0391 136.59 17.4297C136.238 16.8125 136.062 16.0312 136.062 15.0859C136.062 13.6953 136.551 12.6719 137.527 12.0156C138.504 11.3516 139.969 10.9844 141.922 10.9141L144.195 10.8438V10.2695C144.195 9.58203 144.016 9.07812 143.656 8.75781C143.297 8.4375 142.797 8.27734 142.156 8.27734C141.523 8.27734 140.902 8.36719 140.293 8.54688C139.684 8.72656 139.074 8.95312 138.465 9.22656L137.281 6.8125C137.977 6.44531 138.754 6.15625 139.613 5.94531C140.48 5.73438 141.375 5.62891 142.297 5.62891ZM144.195 12.9297L142.812 12.9766C141.656 13.0078 140.852 13.2148 140.398 13.5977C139.953 13.9805 139.73 14.4844 139.73 15.1094C139.73 15.6562 139.891 16.0469 140.211 16.2812C140.531 16.5078 140.949 16.6211 141.465 16.6211C142.23 16.6211 142.875 16.3945 143.398 15.9414C143.93 15.4883 144.195 14.8438 144.195 14.0078V12.9297ZM155.012 19H151.438V0.765625H155.012V19ZM170.328 19.2344C169.031 19.2344 167.926 19 167.012 18.5312C166.098 18.0547 165.402 17.3203 164.926 16.3281C164.449 15.3359 164.211 14.0664 164.211 12.5195C164.211 10.918 164.48 9.61328 165.02 8.60547C165.566 7.58984 166.32 6.84375 167.281 6.36719C168.25 5.89062 169.371 5.65234 170.645 5.65234C171.551 5.65234 172.332 5.74219 172.988 5.92188C173.652 6.09375 174.23 6.30078 174.723 6.54297L173.668 9.30859C173.105 9.08203 172.582 8.89844 172.098 8.75781C171.613 8.60938 171.129 8.53516 170.645 8.53516C170.02 8.53516 169.5 8.68359 169.086 8.98047C168.672 9.26953 168.363 9.70703 168.16 10.293C167.957 10.8789 167.855 11.6133 167.855 12.4961C167.855 13.3633 167.965 14.082 168.184 14.6523C168.402 15.2227 168.719 15.6484 169.133 15.9297C169.547 16.2031 170.051 16.3398 170.645 16.3398C171.387 16.3398 172.047 16.2422 172.625 16.0469C173.203 15.8438 173.766 15.5625 174.312 15.2031V18.2617C173.766 18.6055 173.191 18.8516 172.59 19C171.996 19.1562 171.242 19.2344 170.328 19.2344ZM189.266 12.4258C189.266 13.5195 189.117 14.4883 188.82 15.332C188.531 16.1758 188.105 16.8906 187.543 17.4766C186.988 18.0547 186.316 18.4922 185.527 18.7891C184.746 19.0859 183.863 19.2344 182.879 19.2344C181.957 19.2344 181.109 19.0859 180.336 18.7891C179.57 18.4922 178.902 18.0547 178.332 17.4766C177.77 16.8906 177.332 16.1758 177.02 15.332C176.715 14.4883 176.562 13.5195 176.562 12.4258C176.562 10.9727 176.82 9.74219 177.336 8.73438C177.852 7.72656 178.586 6.96094 179.539 6.4375C180.492 5.91406 181.629 5.65234 182.949 5.65234C184.176 5.65234 185.262 5.91406 186.207 6.4375C187.16 6.96094 187.906 7.72656 188.445 8.73438C188.992 9.74219 189.266 10.9727 189.266 12.4258ZM180.207 12.4258C180.207 13.2852 180.301 14.0078 180.488 14.5938C180.676 15.1797 180.969 15.6211 181.367 15.918C181.766 16.2148 182.285 16.3633 182.926 16.3633C183.559 16.3633 184.07 16.2148 184.461 15.918C184.859 15.6211 185.148 15.1797 185.328 14.5938C185.516 14.0078 185.609 13.2852 185.609 12.4258C185.609 11.5586 185.516 10.8398 185.328 10.2695C185.148 9.69141 184.859 9.25781 184.461 8.96875C184.062 8.67969 183.543 8.53516 182.902 8.53516C181.957 8.53516 181.27 8.85938 180.84 9.50781C180.418 10.1562 180.207 11.1289 180.207 12.4258ZM195.336 19L190.344 5.89844H194.082L196.613 13.3633C196.754 13.8008 196.863 14.2617 196.941 14.7461C197.027 15.2305 197.086 15.6641 197.117 16.0469H197.211C197.234 15.6328 197.289 15.1914 197.375 14.7227C197.469 14.2539 197.59 13.8008 197.738 13.3633L200.258 5.89844H203.996L199.004 19H195.336ZM211.285 5.65234C212.496 5.65234 213.539 5.88672 214.414 6.35547C215.289 6.81641 215.965 7.48828 216.441 8.37109C216.918 9.25391 217.156 10.332 217.156 11.6055V13.3398H208.707C208.746 14.3477 209.047 15.1406 209.609 15.7188C210.18 16.2891 210.969 16.5742 211.977 16.5742C212.812 16.5742 213.578 16.4883 214.273 16.3164C214.969 16.1445 215.684 15.8867 216.418 15.543V18.3086C215.77 18.6289 215.09 18.8633 214.379 19.0117C213.676 19.1602 212.82 19.2344 211.812 19.2344C210.5 19.2344 209.336 18.9922 208.32 18.5078C207.312 18.0234 206.52 17.2852 205.941 16.293C205.371 15.3008 205.086 14.0508 205.086 12.543C205.086 11.0117 205.344 9.73828 205.859 8.72266C206.383 7.69922 207.109 6.93359 208.039 6.42578C208.969 5.91016 210.051 5.65234 211.285 5.65234ZM211.309 8.19531C210.613 8.19531 210.035 8.41797 209.574 8.86328C209.121 9.30859 208.859 10.0078 208.789 10.9609H213.805C213.797 10.4297 213.699 9.95703 213.512 9.54297C213.332 9.12891 213.059 8.80078 212.691 8.55859C212.332 8.31641 211.871 8.19531 211.309 8.19531ZM227.375 5.65234C227.555 5.65234 227.762 5.66406 227.996 5.6875C228.238 5.70312 228.434 5.72656 228.582 5.75781L228.312 9.10938C228.195 9.07031 228.027 9.04297 227.809 9.02734C227.598 9.00391 227.414 8.99219 227.258 8.99219C226.797 8.99219 226.348 9.05078 225.91 9.16797C225.48 9.28516 225.094 9.47656 224.75 9.74219C224.406 10 224.133 10.3438 223.93 10.7734C223.734 11.1953 223.637 11.7148 223.637 12.332V19H220.062V5.89844H222.77L223.297 8.10156H223.473C223.73 7.65625 224.051 7.25 224.434 6.88281C224.824 6.50781 225.266 6.21094 225.758 5.99219C226.258 5.76562 226.797 5.65234 227.375 5.65234ZM236.328 5.62891C238.086 5.62891 239.434 6.01172 240.371 6.77734C241.309 7.54297 241.777 8.70703 241.777 10.2695V19H239.281L238.59 17.2188H238.496C238.121 17.6875 237.738 18.0703 237.348 18.3672C236.957 18.6641 236.508 18.8828 236 19.0234C235.492 19.1641 234.875 19.2344 234.148 19.2344C233.375 19.2344 232.68 19.0859 232.062 18.7891C231.453 18.4922 230.973 18.0391 230.621 17.4297C230.27 16.8125 230.094 16.0312 230.094 15.0859C230.094 13.6953 230.582 12.6719 231.559 12.0156C232.535 11.3516 234 10.9844 235.953 10.9141L238.227 10.8438V10.2695C238.227 9.58203 238.047 9.07812 237.688 8.75781C237.328 8.4375 236.828 8.27734 236.188 8.27734C235.555 8.27734 234.934 8.36719 234.324 8.54688C233.715 8.72656 233.105 8.95312 232.496 9.22656L231.312 6.8125C232.008 6.44531 232.785 6.15625 233.645 5.94531C234.512 5.73438 235.406 5.62891 236.328 5.62891ZM238.227 12.9297L236.844 12.9766C235.688 13.0078 234.883 13.2148 234.43 13.5977C233.984 13.9805 233.762 14.4844 233.762 15.1094C233.762 15.6562 233.922 16.0469 234.242 16.2812C234.562 16.5078 234.98 16.6211 235.496 16.6211C236.262 16.6211 236.906 16.3945 237.43 15.9414C237.961 15.4883 238.227 14.8438 238.227 14.0078V12.9297ZM249.301 24.7656C247.473 24.7656 246.074 24.4453 245.105 23.8047C244.145 23.1719 243.664 22.2812 243.664 21.1328C243.664 20.3438 243.91 19.6836 244.402 19.1523C244.895 18.6211 245.617 18.2422 246.57 18.0156C246.203 17.8594 245.883 17.6055 245.609 17.2539C245.336 16.8945 245.199 16.5156 245.199 16.1172C245.199 15.6172 245.344 15.2031 245.633 14.875C245.922 14.5391 246.34 14.2109 246.887 13.8906C246.199 13.5938 245.652 13.1172 245.246 12.4609C244.848 11.8047 244.648 11.0312 244.648 10.1406C244.648 9.1875 244.855 8.37891 245.27 7.71484C245.691 7.04297 246.301 6.53125 247.098 6.17969C247.902 5.82812 248.879 5.65234 250.027 5.65234C250.27 5.65234 250.551 5.66797 250.871 5.69922C251.191 5.73047 251.484 5.76562 251.75 5.80469C252.023 5.84375 252.207 5.875 252.301 5.89844H256.871V7.71484L254.82 8.24219C255.008 8.53125 255.148 8.83984 255.242 9.16797C255.336 9.49609 255.383 9.84375 255.383 10.2109C255.383 11.6172 254.891 12.7148 253.906 13.5039C252.93 14.2852 251.57 14.6758 249.828 14.6758C249.414 14.6523 249.023 14.6211 248.656 14.582C248.477 14.7227 248.34 14.8711 248.246 15.0273C248.152 15.1836 248.105 15.3477 248.105 15.5195C248.105 15.6914 248.176 15.8359 248.316 15.9531C248.465 16.0625 248.684 16.1484 248.973 16.2109C249.27 16.2656 249.637 16.293 250.074 16.293H252.301C253.738 16.293 254.832 16.6016 255.582 17.2188C256.34 17.8359 256.719 18.7422 256.719 19.9375C256.719 21.4688 256.078 22.6562 254.797 23.5C253.523 24.3438 251.691 24.7656 249.301 24.7656ZM249.453 22.4336C250.305 22.4336 251.035 22.3516 251.645 22.1875C252.262 22.0312 252.734 21.8047 253.062 21.5078C253.391 21.2188 253.555 20.8711 253.555 20.4648C253.555 20.1367 253.457 19.875 253.262 19.6797C253.074 19.4922 252.785 19.3594 252.395 19.2812C252.012 19.2031 251.52 19.1641 250.918 19.1641H249.066C248.629 19.1641 248.234 19.2344 247.883 19.375C247.539 19.5156 247.266 19.7109 247.062 19.9609C246.859 20.2188 246.758 20.5156 246.758 20.8516C246.758 21.3438 246.992 21.7305 247.461 22.0117C247.938 22.293 248.602 22.4336 249.453 22.4336ZM250.027 12.4961C250.699 12.4961 251.191 12.2891 251.504 11.875C251.816 11.4609 251.973 10.8984 251.973 10.1875C251.973 9.39844 251.809 8.80859 251.48 8.41797C251.16 8.01953 250.676 7.82031 250.027 7.82031C249.371 7.82031 248.879 8.01953 248.551 8.41797C248.223 8.80859 248.059 9.39844 248.059 10.1875C248.059 10.8984 248.219 11.4609 248.539 11.875C248.867 12.2891 249.363 12.4961 250.027 12.4961ZM264.441 5.65234C265.652 5.65234 266.695 5.88672 267.57 6.35547C268.445 6.81641 269.121 7.48828 269.598 8.37109C270.074 9.25391 270.312 10.332 270.312 11.6055V13.3398H261.863C261.902 14.3477 262.203 15.1406 262.766 15.7188C263.336 16.2891 264.125 16.5742 265.133 16.5742C265.969 16.5742 266.734 16.4883 267.43 16.3164C268.125 16.1445 268.84 15.8867 269.574 15.543V18.3086C268.926 18.6289 268.246 18.8633 267.535 19.0117C266.832 19.1602 265.977 19.2344 264.969 19.2344C263.656 19.2344 262.492 18.9922 261.477 18.5078C260.469 18.0234 259.676 17.2852 259.098 16.293C258.527 15.3008 258.242 14.0508 258.242 12.543C258.242 11.0117 258.5 9.73828 259.016 8.72266C259.539 7.69922 260.266 6.93359 261.195 6.42578C262.125 5.91016 263.207 5.65234 264.441 5.65234ZM264.465 8.19531C263.77 8.19531 263.191 8.41797 262.73 8.86328C262.277 9.30859 262.016 10.0078 261.945 10.9609H266.961C266.953 10.4297 266.855 9.95703 266.668 9.54297C266.488 9.12891 266.215 8.80078 265.848 8.55859C265.488 8.31641 265.027 8.19531 264.465 8.19531Z" fill="#222222"/>
</svg>
