<svg width="298" height="378" viewBox="0 0 298 378" fill="none" xmlns="http://www.w3.org/2000/svg">
<circle cx="164" cy="34" r="4" fill="#206095"/>
<circle cx="164" cy="34" r="4" fill="#206095"/>
<circle cx="154" cy="34" r="4" fill="#206095"/>
<circle cx="144" cy="34" r="4" fill="#206095"/>
<circle cx="134" cy="34" r="4" fill="#206095"/>
<circle cx="14" cy="34" r="4" fill="#206095"/>
<circle cx="24" cy="24" r="4" fill="#206095"/>
<circle cx="164" cy="14" r="4" fill="#206095"/>
<circle cx="174" cy="14" r="4" fill="#206095"/>
<circle cx="164" cy="14" r="4" fill="#206095"/>
<circle cx="174" cy="14" r="4" fill="#206095"/>
<circle cx="164" cy="4" r="4" fill="#206095"/>
<circle cx="174" cy="4" r="4" fill="#206095"/>
<circle cx="164" cy="4" r="4" fill="#206095"/>
<circle cx="174" cy="4" r="4" fill="#206095"/>
<circle cx="164" cy="44" r="4" fill="#206095"/>
<circle cx="154" cy="44" r="4" fill="#206095"/>
<circle cx="144" cy="44" r="4" fill="#206095"/>
<circle cx="134" cy="44" r="4" fill="#206095"/>
<circle cx="124" cy="44" r="4" fill="#206095"/>
<circle cx="94" cy="44" r="4" fill="#206095"/>
<circle cx="14" cy="44" r="4" fill="#206095"/>
<circle cx="144" cy="54" r="4" fill="#206095"/>
<circle cx="134" cy="54" r="4" fill="#206095"/>
<circle cx="124" cy="54" r="4" fill="#206095"/>
<circle cx="94" cy="54" r="4" fill="#206095"/>
<circle cx="84" cy="54" r="4" fill="#206095"/>
<circle cx="144" cy="64" r="4" fill="#206095"/>
<circle cx="134" cy="64" r="4" fill="#206095"/>
<circle cx="124" cy="64" r="4" fill="#206095"/>
<circle cx="114" cy="64" r="4" fill="#206095"/>
<circle cx="84" cy="64" r="4" fill="#206095"/>
<circle cx="164" cy="74" r="4" fill="#206095"/>
<circle cx="184" cy="74" r="4" fill="#206095"/>
<circle cx="194" cy="74" r="4" fill="#206095"/>
<circle cx="164" cy="74" r="4" fill="#206095"/>
<circle cx="174" cy="74" r="4" fill="#206095"/>
<circle cx="184" cy="74" r="4" fill="#206095"/>
<circle cx="194" cy="74" r="4" fill="#206095"/>
<circle cx="154" cy="74" r="4" fill="#206095"/>
<circle cx="134" cy="74" r="4" fill="#206095"/>
<circle cx="124" cy="74" r="4" fill="#206095"/>
<circle cx="114" cy="74" r="4" fill="#206095"/>
<circle cx="164" cy="84" r="4" fill="#206095"/>
<circle cx="184" cy="84" r="4" fill="#206095"/>
<circle cx="164" cy="84" r="4" fill="#206095"/>
<circle cx="174" cy="84" r="4" fill="#206095"/>
<circle cx="184" cy="84" r="4" fill="#206095"/>
<circle cx="154" cy="84" r="4" fill="#206095"/>
<circle cx="144" cy="84" r="4" fill="#206095"/>
<circle cx="134" cy="84" r="4" fill="#206095"/>
<circle cx="124" cy="84" r="4" fill="#206095"/>
<circle cx="114" cy="84" r="4" fill="#206095"/>
<circle cx="94" cy="84" r="4" fill="#206095"/>
<circle cx="74" cy="84" r="4" fill="#206095"/>
<circle cx="164" cy="94" r="4" fill="#206095"/>
<circle cx="184" cy="94" r="4" fill="#206095"/>
<circle cx="164" cy="94" r="4" fill="#206095"/>
<circle cx="174" cy="94" r="4" fill="#206095"/>
<circle cx="184" cy="94" r="4" fill="#206095"/>
<circle cx="154" cy="94" r="4" fill="#206095"/>
<circle cx="144" cy="94" r="4" fill="#206095"/>
<circle cx="134" cy="94" r="4" fill="#206095"/>
<circle cx="124" cy="94" r="4" fill="#206095"/>
<circle cx="114" cy="94" r="4" fill="#206095"/>
<circle cx="104" cy="94" r="4" fill="#206095"/>
<circle cx="94" cy="94" r="4" fill="#206095"/>
<circle cx="164" cy="104" r="4" fill="#206095"/>
<circle cx="184" cy="104" r="4" fill="#206095"/>
<circle cx="164" cy="104" r="4" fill="#206095"/>
<circle cx="174" cy="104" r="4" fill="#206095"/>
<circle cx="184" cy="104" r="4" fill="#206095"/>
<circle cx="154" cy="104" r="4" fill="#206095"/>
<circle cx="144" cy="104" r="4" fill="#206095"/>
<circle cx="134" cy="104" r="4" fill="#206095"/>
<circle cx="124" cy="104" r="4" fill="#206095"/>
<circle cx="114" cy="104" r="4" fill="#206095"/>
<circle cx="164" cy="114" r="4" fill="#206095"/>
<circle cx="164" cy="114" r="4" fill="#206095"/>
<circle cx="174" cy="114" r="4" fill="#206095"/>
<circle cx="154" cy="114" r="4" fill="#206095"/>
<circle cx="144" cy="114" r="4" fill="#206095"/>
<circle cx="134" cy="114" r="4" fill="#206095"/>
<circle cx="124" cy="114" r="4" fill="#206095"/>
<circle cx="114" cy="114" r="4" fill="#206095"/>
<circle cx="104" cy="114" r="4" fill="#206095"/>
<circle cx="164" cy="124" r="4" fill="#206095"/>
<circle cx="174" cy="124" r="4" fill="#206095"/>
<circle cx="164" cy="124" r="4" fill="#206095"/>
<circle cx="174" cy="124" r="4" fill="#206095"/>
<circle cx="154" cy="124" r="4" fill="#206095"/>
<circle cx="144" cy="124" r="4" fill="#206095"/>
<circle cx="134" cy="124" r="4" fill="#206095"/>
<circle cx="124" cy="124" r="4" fill="#206095"/>
<circle cx="114" cy="124" r="4" fill="#206095"/>
<circle cx="104" cy="124" r="4" fill="#206095"/>
<circle cx="164" cy="134" r="4" fill="#206095"/>
<circle cx="164" cy="134" r="4" fill="#206095"/>
<circle cx="154" cy="134" r="4" fill="#206095"/>
<circle cx="144" cy="134" r="4" fill="#206095"/>
<circle cx="134" cy="134" r="4" fill="#206095"/>
<circle cx="124" cy="134" r="4" fill="#206095"/>
<circle cx="114" cy="134" r="4" fill="#206095"/>
<circle cx="164" cy="144" r="4" fill="#206095"/>
<circle cx="174" cy="144" r="4" fill="#206095"/>
<circle cx="164" cy="144" r="4" fill="#206095"/>
<circle cx="174" cy="144" r="4" fill="#206095"/>
<circle cx="184" cy="144" r="4" fill="#206095"/>
<circle cx="154" cy="144" r="4" fill="#206095"/>
<circle cx="144" cy="144" r="4" fill="#206095"/>
<circle cx="134" cy="144" r="4" fill="#206095"/>
<circle cx="124" cy="144" r="4" fill="#206095"/>
<circle cx="114" cy="144" r="4" fill="#206095"/>
<circle cx="104" cy="144" r="4" fill="#206095"/>
<circle cx="94" cy="144" r="4" fill="#206095"/>
<circle cx="164" cy="154" r="4" fill="#206095"/>
<circle cx="174" cy="154" r="4" fill="#206095"/>
<circle cx="164" cy="154" r="4" fill="#206095"/>
<circle cx="174" cy="154" r="4" fill="#206095"/>
<circle cx="184" cy="154" r="4" fill="#206095"/>
<circle cx="154" cy="154" r="4" fill="#206095"/>
<circle cx="144" cy="154" r="4" fill="#206095"/>
<circle cx="134" cy="154" r="4" fill="#206095"/>
<circle cx="124" cy="154" r="4" fill="#206095"/>
<circle cx="114" cy="154" r="4" fill="#206095"/>
<circle cx="164" cy="164" r="4" fill="#206095"/>
<circle cx="174" cy="164" r="4" fill="#206095"/>
<circle cx="184" cy="164" r="4" fill="#206095"/>
<circle cx="154" cy="164" r="4" fill="#206095"/>
<circle cx="144" cy="164" r="4" fill="#206095"/>
<circle cx="134" cy="164" r="4" fill="#206095"/>
<circle cx="114" cy="164" r="4" fill="#206095"/>
<circle cx="164" cy="174" r="4" fill="#206095"/>
<circle cx="174" cy="174" r="4" fill="#206095"/>
<circle cx="154" cy="174" r="4" fill="#206095"/>
<circle cx="144" cy="174" r="4" fill="#206095"/>
<circle cx="134" cy="174" r="4" fill="#206095"/>
<circle cx="164" cy="184" r="4" fill="#206095"/>
<circle cx="154" cy="184" r="4" fill="#206095"/>
<circle cx="144" cy="184" r="4" fill="#206095"/>
<circle cx="134" cy="184" r="4" fill="#206095"/>
<circle cx="124" cy="184" r="4" fill="#206095"/>
<circle cx="94" cy="174" r="4" fill="#206095"/>
<circle cx="84" cy="174" r="4" fill="#206095"/>
<circle cx="74" cy="174" r="4" fill="#206095"/>
<circle cx="104" cy="184" r="4" fill="#206095"/>
<circle cx="94" cy="184" r="4" fill="#206095"/>
<circle cx="84" cy="184" r="4" fill="#206095"/>
<circle cx="74" cy="184" r="4" fill="#206095"/>
<circle cx="114" cy="194" r="4" fill="#206095"/>
<circle cx="104" cy="194" r="4" fill="#206095"/>
<circle cx="94" cy="194" r="4" fill="#206095"/>
<circle cx="84" cy="194" r="4" fill="#206095"/>
<circle cx="74" cy="194" r="4" fill="#206095"/>
<circle cx="64" cy="194" r="4" fill="#206095"/>
<circle cx="114" cy="204" r="4" fill="#206095"/>
<circle cx="104" cy="204" r="4" fill="#206095"/>
<circle cx="94" cy="204" r="4" fill="#206095"/>
<circle cx="84" cy="204" r="4" fill="#206095"/>
<circle cx="74" cy="204" r="4" fill="#206095"/>
<circle cx="64" cy="204" r="4" fill="#206095"/>
<circle cx="104" cy="214" r="4" fill="#206095"/>
<circle cx="94" cy="214" r="4" fill="#206095"/>
<circle cx="164" cy="244" r="4" fill="#206095"/>
<circle cx="164" cy="244" r="4" fill="#206095"/>
<circle cx="144" cy="244" r="4" fill="#206095"/>
<circle cx="164" cy="254" r="4" fill="#206095"/>
<circle cx="164" cy="254" r="4" fill="#206095"/>
<circle cx="174" cy="254" r="4" fill="#206095"/>
<circle cx="154" cy="254" r="4" fill="#206095"/>
<circle cx="144" cy="254" r="4" fill="#206095"/>
<circle cx="164" cy="264" r="4" fill="#206095"/>
<circle cx="164" cy="264" r="4" fill="#206095"/>
<circle cx="154" cy="264" r="4" fill="#206095"/>
<circle cx="164" cy="274" r="4" fill="#206095"/>
<circle cx="164" cy="274" r="4" fill="#206095"/>
<circle cx="174" cy="274" r="4" fill="#206095"/>
<circle cx="154" cy="274" r="4" fill="#206095"/>
<circle cx="164" cy="284" r="4" fill="#206095"/>
<circle cx="164" cy="284" r="4" fill="#206095"/>
<circle cx="174" cy="284" r="4" fill="#206095"/>
<circle cx="154" cy="284" r="4" fill="#206095"/>
<circle cx="164" cy="294" r="4" fill="#206095"/>
<circle cx="164" cy="294" r="4" fill="#206095"/>
<circle cx="174" cy="294" r="4" fill="#206095"/>
<circle cx="154" cy="294" r="4" fill="#206095"/>
<circle cx="144" cy="294" r="4" fill="#206095"/>
<circle cx="134" cy="294" r="4" fill="#206095"/>
<circle cx="164" cy="304" r="4" fill="#206095"/>
<circle cx="164" cy="304" r="4" fill="#206095"/>
<circle cx="174" cy="304" r="4" fill="#206095"/>
<circle cx="184" cy="304" r="4" fill="#206095"/>
<circle cx="154" cy="304" r="4" fill="#206095"/>
<circle cx="144" cy="304" r="4" fill="#206095"/>
<circle cx="134" cy="304" r="4" fill="#206095"/>
<circle cx="124" cy="304" r="4" fill="#206095"/>
<circle cx="164" cy="314" r="4" fill="#206095"/>
<circle cx="164" cy="314" r="4" fill="#206095"/>
<circle cx="174" cy="314" r="4" fill="#206095"/>
<circle cx="184" cy="314" r="4" fill="#206095"/>
<circle cx="154" cy="314" r="4" fill="#206095"/>
<circle cx="134" cy="314" r="4" fill="#206095"/>
<circle cx="74" cy="164" r="4" fill="#F3F2F1"/>
<circle cx="64" cy="174" r="4" fill="#F3F2F1"/>
<circle cx="54" cy="174" r="4" fill="#F3F2F1"/>
<circle cx="64" cy="184" r="4" fill="#F3F2F1"/>
<circle cx="54" cy="184" r="4" fill="#F3F2F1"/>
<circle cx="54" cy="194" r="4" fill="#F3F2F1"/>
<circle cx="144" cy="204" r="4" fill="#F3F2F1"/>
<circle cx="54" cy="204" r="4" fill="#F3F2F1"/>
<circle cx="44" cy="204" r="4" fill="#F3F2F1"/>
<circle cx="24" cy="204" r="4" fill="#F3F2F1"/>
<circle cx="14" cy="204" r="4" fill="#F3F2F1"/>
<circle cx="134" cy="214" r="4" fill="#F3F2F1"/>
<circle cx="84" cy="214" r="4" fill="#F3F2F1"/>
<circle cx="74" cy="214" r="4" fill="#F3F2F1"/>
<circle cx="64" cy="214" r="4" fill="#F3F2F1"/>
<circle cx="54" cy="214" r="4" fill="#F3F2F1"/>
<circle cx="44" cy="214" r="4" fill="#F3F2F1"/>
<circle cx="34" cy="214" r="4" fill="#F3F2F1"/>
<circle cx="24" cy="214" r="4" fill="#F3F2F1"/>
<circle cx="14" cy="214" r="4" fill="#F3F2F1"/>
<circle cx="94" cy="224" r="4" fill="#F3F2F1"/>
<circle cx="84" cy="224" r="4" fill="#F3F2F1"/>
<circle cx="74" cy="224" r="4" fill="#F3F2F1"/>
<circle cx="64" cy="224" r="4" fill="#F3F2F1"/>
<circle cx="54" cy="224" r="4" fill="#F3F2F1"/>
<circle cx="44" cy="224" r="4" fill="#F3F2F1"/>
<circle cx="34" cy="224" r="4" fill="#F3F2F1"/>
<circle cx="24" cy="224" r="4" fill="#F3F2F1"/>
<circle cx="14" cy="224" r="4" fill="#F3F2F1"/>
<circle cx="94" cy="234" r="4" fill="#F3F2F1"/>
<circle cx="84" cy="234" r="4" fill="#F3F2F1"/>
<circle cx="74" cy="234" r="4" fill="#F3F2F1"/>
<circle cx="64" cy="234" r="4" fill="#F3F2F1"/>
<circle cx="54" cy="234" r="4" fill="#F3F2F1"/>
<circle cx="44" cy="234" r="4" fill="#F3F2F1"/>
<circle cx="34" cy="234" r="4" fill="#F3F2F1"/>
<circle cx="24" cy="234" r="4" fill="#F3F2F1"/>
<circle cx="14" cy="234" r="4" fill="#F3F2F1"/>
<circle cx="4" cy="234" r="4" fill="#F3F2F1"/>
<circle cx="94" cy="244" r="4" fill="#F3F2F1"/>
<circle cx="84" cy="244" r="4" fill="#F3F2F1"/>
<circle cx="74" cy="244" r="4" fill="#F3F2F1"/>
<circle cx="64" cy="244" r="4" fill="#F3F2F1"/>
<circle cx="54" cy="244" r="4" fill="#F3F2F1"/>
<circle cx="44" cy="244" r="4" fill="#F3F2F1"/>
<circle cx="34" cy="244" r="4" fill="#F3F2F1"/>
<circle cx="24" cy="244" r="4" fill="#F3F2F1"/>
<circle cx="94" cy="254" r="4" fill="#F3F2F1"/>
<circle cx="84" cy="254" r="4" fill="#F3F2F1"/>
<circle cx="74" cy="254" r="4" fill="#F3F2F1"/>
<circle cx="64" cy="254" r="4" fill="#F3F2F1"/>
<circle cx="54" cy="254" r="4" fill="#F3F2F1"/>
<circle cx="44" cy="254" r="4" fill="#F3F2F1"/>
<circle cx="34" cy="254" r="4" fill="#F3F2F1"/>
<circle cx="24" cy="254" r="4" fill="#F3F2F1"/>
<circle cx="94" cy="264" r="4" fill="#F3F2F1"/>
<circle cx="84" cy="264" r="4" fill="#F3F2F1"/>
<circle cx="74" cy="264" r="4" fill="#F3F2F1"/>
<circle cx="64" cy="264" r="4" fill="#F3F2F1"/>
<circle cx="54" cy="264" r="4" fill="#F3F2F1"/>
<circle cx="44" cy="264" r="4" fill="#F3F2F1"/>
<circle cx="34" cy="264" r="4" fill="#F3F2F1"/>
<circle cx="24" cy="264" r="4" fill="#F3F2F1"/>
<circle cx="94" cy="274" r="4" fill="#F3F2F1"/>
<circle cx="84" cy="274" r="4" fill="#F3F2F1"/>
<circle cx="74" cy="274" r="4" fill="#F3F2F1"/>
<circle cx="64" cy="274" r="4" fill="#F3F2F1"/>
<circle cx="54" cy="274" r="4" fill="#F3F2F1"/>
<circle cx="44" cy="274" r="4" fill="#F3F2F1"/>
<circle cx="34" cy="274" r="4" fill="#F3F2F1"/>
<circle cx="24" cy="274" r="4" fill="#F3F2F1"/>
<circle cx="14" cy="274" r="4" fill="#F3F2F1"/>
<circle cx="84" cy="284" r="4" fill="#F3F2F1"/>
<circle cx="74" cy="284" r="4" fill="#F3F2F1"/>
<circle cx="64" cy="284" r="4" fill="#F3F2F1"/>
<circle cx="54" cy="284" r="4" fill="#F3F2F1"/>
<circle cx="44" cy="284" r="4" fill="#F3F2F1"/>
<circle cx="34" cy="284" r="4" fill="#F3F2F1"/>
<circle cx="24" cy="284" r="4" fill="#F3F2F1"/>
<circle cx="14" cy="284" r="4" fill="#F3F2F1"/>
<circle cx="54" cy="294" r="4" fill="#F3F2F1"/>
<circle cx="44" cy="294" r="4" fill="#F3F2F1"/>
<circle cx="34" cy="294" r="4" fill="#F3F2F1"/>
<circle cx="24" cy="294" r="4" fill="#F3F2F1"/>
<circle cx="14" cy="294" r="4" fill="#F3F2F1"/>
<circle cx="4" cy="294" r="4" fill="#F3F2F1"/>
<circle cx="34" cy="304" r="4" fill="#F3F2F1"/>
<circle cx="24" cy="304" r="4" fill="#F3F2F1"/>
<circle cx="14" cy="304" r="4" fill="#F3F2F1"/>
<circle cx="24" cy="314" r="4" fill="#F3F2F1"/>
<circle cx="14" cy="314" r="4" fill="#F3F2F1"/>
<circle cx="194" cy="144" r="4" fill="#206095"/>
<circle cx="194" cy="144" r="4" fill="#206095"/>
<circle cx="194" cy="154" r="4" fill="#206095"/>
<circle cx="204" cy="154" r="4" fill="#206095"/>
<circle cx="194" cy="154" r="4" fill="#206095"/>
<circle cx="204" cy="154" r="4" fill="#206095"/>
<circle cx="194" cy="164" r="4" fill="#206095"/>
<circle cx="204" cy="164" r="4" fill="#206095"/>
<circle cx="194" cy="164" r="4" fill="#206095"/>
<circle cx="204" cy="164" r="4" fill="#206095"/>
<circle cx="194" cy="174" r="4" fill="#206095"/>
<circle cx="204" cy="174" r="4" fill="#206095"/>
<circle cx="184" cy="174" r="4" fill="#206095"/>
<circle cx="194" cy="174" r="4" fill="#206095"/>
<circle cx="204" cy="174" r="4" fill="#206095"/>
<circle cx="194" cy="184" r="4" fill="#206095"/>
<circle cx="204" cy="184" r="4" fill="#206095"/>
<circle cx="214" cy="184" r="4" fill="#206095"/>
<circle cx="174" cy="184" r="4" fill="#206095"/>
<circle cx="184" cy="184" r="4" fill="#206095"/>
<circle cx="194" cy="184" r="4" fill="#206095"/>
<circle cx="204" cy="184" r="4" fill="#206095"/>
<circle cx="214" cy="184" r="4" fill="#206095"/>
<circle cx="194" cy="194" r="4" fill="#206095"/>
<circle cx="204" cy="194" r="4" fill="#206095"/>
<circle cx="214" cy="194" r="4" fill="#206095"/>
<circle cx="224" cy="194" r="4" fill="#206095"/>
<circle cx="234" cy="194" r="4" fill="#206095"/>
<circle cx="164" cy="194" r="4" fill="#206095"/>
<circle cx="174" cy="194" r="4" fill="#206095"/>
<circle cx="184" cy="194" r="4" fill="#206095"/>
<circle cx="194" cy="194" r="4" fill="#206095"/>
<circle cx="204" cy="194" r="4" fill="#206095"/>
<circle cx="214" cy="194" r="4" fill="#206095"/>
<circle cx="224" cy="194" r="4" fill="#206095"/>
<circle cx="234" cy="194" r="4" fill="#206095"/>
<circle cx="194" cy="204" r="4" fill="#206095"/>
<circle cx="204" cy="204" r="4" fill="#206095"/>
<circle cx="214" cy="204" r="4" fill="#206095"/>
<circle cx="224" cy="204" r="4" fill="#206095"/>
<circle cx="234" cy="204" r="4" fill="#206095"/>
<circle cx="174" cy="204" r="4" fill="#206095"/>
<circle cx="184" cy="204" r="4" fill="#206095"/>
<circle cx="194" cy="204" r="4" fill="#206095"/>
<circle cx="204" cy="204" r="4" fill="#206095"/>
<circle cx="214" cy="204" r="4" fill="#206095"/>
<circle cx="224" cy="204" r="4" fill="#206095"/>
<circle cx="234" cy="204" r="4" fill="#206095"/>
<circle cx="194" cy="214" r="4" fill="#206095"/>
<circle cx="204" cy="214" r="4" fill="#206095"/>
<circle cx="214" cy="214" r="4" fill="#206095"/>
<circle cx="224" cy="214" r="4" fill="#206095"/>
<circle cx="234" cy="214" r="4" fill="#206095"/>
<circle cx="184" cy="214" r="4" fill="#206095"/>
<circle cx="194" cy="214" r="4" fill="#206095"/>
<circle cx="204" cy="214" r="4" fill="#206095"/>
<circle cx="214" cy="214" r="4" fill="#206095"/>
<circle cx="224" cy="214" r="4" fill="#206095"/>
<circle cx="234" cy="214" r="4" fill="#206095"/>
<circle cx="194" cy="224" r="4" fill="#206095"/>
<circle cx="204" cy="224" r="4" fill="#206095"/>
<circle cx="214" cy="224" r="4" fill="#206095"/>
<circle cx="224" cy="224" r="4" fill="#206095"/>
<circle cx="234" cy="224" r="4" fill="#206095"/>
<circle cx="244" cy="224" r="4" fill="#206095"/>
<circle cx="174" cy="224" r="4" fill="#206095"/>
<circle cx="184" cy="224" r="4" fill="#206095"/>
<circle cx="194" cy="224" r="4" fill="#206095"/>
<circle cx="204" cy="224" r="4" fill="#206095"/>
<circle cx="214" cy="224" r="4" fill="#206095"/>
<circle cx="224" cy="224" r="4" fill="#206095"/>
<circle cx="234" cy="224" r="4" fill="#206095"/>
<circle cx="244" cy="224" r="4" fill="#206095"/>
<circle cx="194" cy="234" r="4" fill="#206095"/>
<circle cx="204" cy="234" r="4" fill="#206095"/>
<circle cx="214" cy="234" r="4" fill="#206095"/>
<circle cx="224" cy="234" r="4" fill="#206095"/>
<circle cx="234" cy="234" r="4" fill="#206095"/>
<circle cx="244" cy="234" r="4" fill="#206095"/>
<circle cx="254" cy="234" r="4" fill="#206095"/>
<circle cx="174" cy="234" r="4" fill="#206095"/>
<circle cx="184" cy="234" r="4" fill="#206095"/>
<circle cx="194" cy="234" r="4" fill="#206095"/>
<circle cx="204" cy="234" r="4" fill="#206095"/>
<circle cx="214" cy="234" r="4" fill="#206095"/>
<circle cx="224" cy="234" r="4" fill="#206095"/>
<circle cx="234" cy="234" r="4" fill="#206095"/>
<circle cx="244" cy="234" r="4" fill="#206095"/>
<circle cx="254" cy="234" r="4" fill="#206095"/>
<circle cx="194" cy="244" r="4" fill="#206095"/>
<circle cx="204" cy="244" r="4" fill="#206095"/>
<circle cx="214" cy="244" r="4" fill="#206095"/>
<circle cx="224" cy="244" r="4" fill="#206095"/>
<circle cx="234" cy="244" r="4" fill="#206095"/>
<circle cx="244" cy="244" r="4" fill="#206095"/>
<circle cx="254" cy="244" r="4" fill="#206095"/>
<circle cx="174" cy="244" r="4" fill="#206095"/>
<circle cx="184" cy="244" r="4" fill="#206095"/>
<circle cx="194" cy="244" r="4" fill="#206095"/>
<circle cx="204" cy="244" r="4" fill="#206095"/>
<circle cx="214" cy="244" r="4" fill="#206095"/>
<circle cx="224" cy="244" r="4" fill="#206095"/>
<circle cx="234" cy="244" r="4" fill="#206095"/>
<circle cx="244" cy="244" r="4" fill="#206095"/>
<circle cx="254" cy="244" r="4" fill="#206095"/>
<circle cx="194" cy="254" r="4" fill="#206095"/>
<circle cx="204" cy="254" r="4" fill="#206095"/>
<circle cx="214" cy="254" r="4" fill="#206095"/>
<circle cx="224" cy="254" r="4" fill="#206095"/>
<circle cx="234" cy="254" r="4" fill="#206095"/>
<circle cx="244" cy="254" r="4" fill="#206095"/>
<circle cx="264" cy="254" r="4" fill="#206095"/>
<circle cx="274" cy="254" r="4" fill="#206095"/>
<circle cx="284" cy="254" r="4" fill="#206095"/>
<circle cx="184" cy="254" r="4" fill="#206095"/>
<circle cx="194" cy="254" r="4" fill="#206095"/>
<circle cx="204" cy="254" r="4" fill="#206095"/>
<circle cx="214" cy="254" r="4" fill="#206095"/>
<circle cx="224" cy="254" r="4" fill="#206095"/>
<circle cx="234" cy="254" r="4" fill="#206095"/>
<circle cx="244" cy="254" r="4" fill="#206095"/>
<circle cx="264" cy="254" r="4" fill="#206095"/>
<circle cx="274" cy="254" r="4" fill="#206095"/>
<circle cx="284" cy="254" r="4" fill="#206095"/>
<circle cx="194" cy="264" r="4" fill="#206095"/>
<circle cx="204" cy="264" r="4" fill="#206095"/>
<circle cx="214" cy="264" r="4" fill="#206095"/>
<circle cx="224" cy="264" r="4" fill="#206095"/>
<circle cx="234" cy="264" r="4" fill="#206095"/>
<circle cx="244" cy="264" r="4" fill="#206095"/>
<circle cx="254" cy="264" r="4" fill="#206095"/>
<circle cx="264" cy="264" r="4" fill="#206095"/>
<circle cx="274" cy="264" r="4" fill="#206095"/>
<circle cx="284" cy="264" r="4" fill="#206095"/>
<circle cx="294" cy="264" r="4" fill="#206095"/>
<circle cx="174" cy="264" r="4" fill="#206095"/>
<circle cx="184" cy="264" r="4" fill="#206095"/>
<circle cx="194" cy="264" r="4" fill="#206095"/>
<circle cx="204" cy="264" r="4" fill="#206095"/>
<circle cx="214" cy="264" r="4" fill="#206095"/>
<circle cx="224" cy="264" r="4" fill="#206095"/>
<circle cx="234" cy="264" r="4" fill="#206095"/>
<circle cx="244" cy="264" r="4" fill="#206095"/>
<circle cx="254" cy="264" r="4" fill="#206095"/>
<circle cx="264" cy="264" r="4" fill="#206095"/>
<circle cx="274" cy="264" r="4" fill="#206095"/>
<circle cx="284" cy="264" r="4" fill="#206095"/>
<circle cx="194" cy="274" r="4" fill="#206095"/>
<circle cx="204" cy="274" r="4" fill="#206095"/>
<circle cx="214" cy="274" r="4" fill="#206095"/>
<circle cx="224" cy="274" r="4" fill="#206095"/>
<circle cx="234" cy="274" r="4" fill="#206095"/>
<circle cx="244" cy="274" r="4" fill="#206095"/>
<circle cx="254" cy="274" r="4" fill="#206095"/>
<circle cx="264" cy="274" r="4" fill="#206095"/>
<circle cx="274" cy="274" r="4" fill="#206095"/>
<circle cx="284" cy="274" r="4" fill="#206095"/>
<circle cx="294" cy="274" r="4" fill="#206095"/>
<circle cx="184" cy="274" r="4" fill="#206095"/>
<circle cx="194" cy="274" r="4" fill="#206095"/>
<circle cx="204" cy="274" r="4" fill="#206095"/>
<circle cx="214" cy="274" r="4" fill="#206095"/>
<circle cx="224" cy="274" r="4" fill="#206095"/>
<circle cx="234" cy="274" r="4" fill="#206095"/>
<circle cx="244" cy="274" r="4" fill="#206095"/>
<circle cx="254" cy="274" r="4" fill="#206095"/>
<circle cx="264" cy="274" r="4" fill="#206095"/>
<circle cx="274" cy="274" r="4" fill="#206095"/>
<circle cx="284" cy="274" r="4" fill="#206095"/>
<circle cx="294" cy="274" r="4" fill="#206095"/>
<circle cx="194" cy="284" r="4" fill="#206095"/>
<circle cx="204" cy="284" r="4" fill="#206095"/>
<circle cx="214" cy="284" r="4" fill="#206095"/>
<circle cx="224" cy="284" r="4" fill="#206095"/>
<circle cx="234" cy="284" r="4" fill="#206095"/>
<circle cx="244" cy="284" r="4" fill="#206095"/>
<circle cx="254" cy="284" r="4" fill="#206095"/>
<circle cx="264" cy="284" r="4" fill="#206095"/>
<circle cx="274" cy="284" r="4" fill="#206095"/>
<circle cx="284" cy="284" r="4" fill="#206095"/>
<circle cx="184" cy="284" r="4" fill="#206095"/>
<circle cx="194" cy="284" r="4" fill="#206095"/>
<circle cx="204" cy="284" r="4" fill="#206095"/>
<circle cx="214" cy="284" r="4" fill="#206095"/>
<circle cx="224" cy="284" r="4" fill="#206095"/>
<circle cx="234" cy="284" r="4" fill="#206095"/>
<circle cx="244" cy="284" r="4" fill="#206095"/>
<circle cx="254" cy="284" r="4" fill="#206095"/>
<circle cx="264" cy="284" r="4" fill="#206095"/>
<circle cx="274" cy="284" r="4" fill="#206095"/>
<circle cx="284" cy="284" r="4" fill="#206095"/>
<circle cx="194" cy="294" r="4" fill="#206095"/>
<circle cx="204" cy="294" r="4" fill="#206095"/>
<circle cx="214" cy="294" r="4" fill="#206095"/>
<circle cx="224" cy="294" r="4" fill="#206095"/>
<circle cx="234" cy="294" r="4" fill="#206095"/>
<circle cx="244" cy="294" r="4" fill="#206095"/>
<circle cx="254" cy="294" r="4" fill="#206095"/>
<circle cx="264" cy="294" r="4" fill="#206095"/>
<circle cx="274" cy="294" r="4" fill="#206095"/>
<circle cx="284" cy="294" r="4" fill="#206095"/>
<circle cx="184" cy="294" r="4" fill="#206095"/>
<circle cx="194" cy="294" r="4" fill="#206095"/>
<circle cx="204" cy="294" r="4" fill="#206095"/>
<circle cx="214" cy="294" r="4" fill="#206095"/>
<circle cx="224" cy="294" r="4" fill="#206095"/>
<circle cx="234" cy="294" r="4" fill="#206095"/>
<circle cx="244" cy="294" r="4" fill="#206095"/>
<circle cx="254" cy="294" r="4" fill="#206095"/>
<circle cx="264" cy="294" r="4" fill="#206095"/>
<circle cx="274" cy="294" r="4" fill="#206095"/>
<circle cx="284" cy="294" r="4" fill="#206095"/>
<circle cx="194" cy="304" r="4" fill="#206095"/>
<circle cx="204" cy="304" r="4" fill="#206095"/>
<circle cx="214" cy="304" r="4" fill="#206095"/>
<circle cx="224" cy="304" r="4" fill="#206095"/>
<circle cx="234" cy="304" r="4" fill="#206095"/>
<circle cx="244" cy="304" r="4" fill="#206095"/>
<circle cx="254" cy="304" r="4" fill="#206095"/>
<circle cx="264" cy="304" r="4" fill="#206095"/>
<circle cx="274" cy="304" r="4" fill="#206095"/>
<circle cx="194" cy="304" r="4" fill="#206095"/>
<circle cx="204" cy="304" r="4" fill="#206095"/>
<circle cx="214" cy="304" r="4" fill="#206095"/>
<circle cx="224" cy="304" r="4" fill="#206095"/>
<circle cx="234" cy="304" r="4" fill="#206095"/>
<circle cx="244" cy="304" r="4" fill="#206095"/>
<circle cx="254" cy="304" r="4" fill="#206095"/>
<circle cx="264" cy="304" r="4" fill="#206095"/>
<circle cx="274" cy="304" r="4" fill="#206095"/>
<circle cx="194" cy="314" r="4" fill="#206095"/>
<circle cx="204" cy="314" r="4" fill="#206095"/>
<circle cx="214" cy="314" r="4" fill="#206095"/>
<circle cx="224" cy="314" r="4" fill="#206095"/>
<circle cx="234" cy="314" r="4" fill="#206095"/>
<circle cx="244" cy="314" r="4" fill="#206095"/>
<circle cx="254" cy="314" r="4" fill="#206095"/>
<circle cx="264" cy="314" r="4" fill="#206095"/>
<circle cx="274" cy="314" r="4" fill="#206095"/>
<circle cx="284" cy="314" r="4" fill="#206095"/>
<circle cx="194" cy="314" r="4" fill="#206095"/>
<circle cx="204" cy="314" r="4" fill="#206095"/>
<circle cx="214" cy="314" r="4" fill="#206095"/>
<circle cx="224" cy="314" r="4" fill="#206095"/>
<circle cx="234" cy="314" r="4" fill="#206095"/>
<circle cx="244" cy="314" r="4" fill="#206095"/>
<circle cx="254" cy="314" r="4" fill="#206095"/>
<circle cx="264" cy="314" r="4" fill="#206095"/>
<circle cx="274" cy="314" r="4" fill="#206095"/>
<circle cx="284" cy="314" r="4" fill="#206095"/>
<circle cx="184" cy="324" r="4" fill="#206095"/>
<circle cx="194" cy="324" r="4" fill="#206095"/>
<circle cx="204" cy="324" r="4" fill="#206095"/>
<circle cx="214" cy="324" r="4" fill="#206095"/>
<circle cx="224" cy="324" r="4" fill="#206095"/>
<circle cx="234" cy="324" r="4" fill="#206095"/>
<circle cx="244" cy="324" r="4" fill="#206095"/>
<circle cx="254" cy="324" r="4" fill="#206095"/>
<circle cx="264" cy="324" r="4" fill="#206095"/>
<circle cx="274" cy="324" r="4" fill="#206095"/>
<circle cx="284" cy="324" r="4" fill="#206095"/>
<circle cx="184" cy="324" r="4" fill="#206095"/>
<circle cx="194" cy="324" r="4" fill="#206095"/>
<circle cx="204" cy="324" r="4" fill="#206095"/>
<circle cx="214" cy="324" r="4" fill="#206095"/>
<circle cx="224" cy="324" r="4" fill="#206095"/>
<circle cx="234" cy="324" r="4" fill="#206095"/>
<circle cx="244" cy="324" r="4" fill="#206095"/>
<circle cx="254" cy="324" r="4" fill="#206095"/>
<circle cx="264" cy="324" r="4" fill="#206095"/>
<circle cx="274" cy="324" r="4" fill="#206095"/>
<circle cx="284" cy="324" r="4" fill="#206095"/>
<circle cx="164" cy="334" r="4" fill="#206095"/>
<circle cx="174" cy="334" r="4" fill="#206095"/>
<circle cx="184" cy="334" r="4" fill="#206095"/>
<circle cx="194" cy="334" r="4" fill="#206095"/>
<circle cx="204" cy="334" r="4" fill="#206095"/>
<circle cx="214" cy="334" r="4" fill="#206095"/>
<circle cx="224" cy="334" r="4" fill="#206095"/>
<circle cx="234" cy="334" r="4" fill="#206095"/>
<circle cx="244" cy="334" r="4" fill="#206095"/>
<circle cx="254" cy="334" r="4" fill="#206095"/>
<circle cx="264" cy="334" r="4" fill="#206095"/>
<circle cx="274" cy="334" r="4" fill="#206095"/>
<circle cx="164" cy="334" r="4" fill="#206095"/>
<circle cx="174" cy="334" r="4" fill="#206095"/>
<circle cx="184" cy="334" r="4" fill="#206095"/>
<circle cx="194" cy="334" r="4" fill="#206095"/>
<circle cx="204" cy="334" r="4" fill="#206095"/>
<circle cx="214" cy="334" r="4" fill="#206095"/>
<circle cx="224" cy="334" r="4" fill="#206095"/>
<circle cx="234" cy="334" r="4" fill="#206095"/>
<circle cx="244" cy="334" r="4" fill="#206095"/>
<circle cx="254" cy="334" r="4" fill="#206095"/>
<circle cx="264" cy="334" r="4" fill="#206095"/>
<circle cx="274" cy="334" r="4" fill="#206095"/>
<circle cx="154" cy="334" r="4" fill="#206095"/>
<circle cx="164" cy="344" r="4" fill="#206095"/>
<circle cx="174" cy="344" r="4" fill="#206095"/>
<circle cx="184" cy="344" r="4" fill="#206095"/>
<circle cx="194" cy="344" r="4" fill="#206095"/>
<circle cx="204" cy="344" r="4" fill="#206095"/>
<circle cx="214" cy="344" r="4" fill="#206095"/>
<circle cx="224" cy="344" r="4" fill="#206095"/>
<circle cx="234" cy="344" r="4" fill="#206095"/>
<circle cx="164" cy="344" r="4" fill="#206095"/>
<circle cx="174" cy="344" r="4" fill="#206095"/>
<circle cx="184" cy="344" r="4" fill="#206095"/>
<circle cx="194" cy="344" r="4" fill="#206095"/>
<circle cx="204" cy="344" r="4" fill="#206095"/>
<circle cx="214" cy="344" r="4" fill="#206095"/>
<circle cx="224" cy="344" r="4" fill="#206095"/>
<circle cx="234" cy="344" r="4" fill="#206095"/>
<circle cx="154" cy="344" r="4" fill="#206095"/>
<circle cx="144" cy="344" r="4" fill="#206095"/>
<circle cx="164" cy="354" r="4" fill="#206095"/>
<circle cx="194" cy="354" r="4" fill="#206095"/>
<circle cx="164" cy="354" r="4" fill="#206095"/>
<circle cx="194" cy="354" r="4" fill="#206095"/>
<circle cx="154" cy="354" r="4" fill="#206095"/>
<circle cx="144" cy="354" r="4" fill="#206095"/>
<circle cx="134" cy="354" r="4" fill="#206095"/>
<circle cx="164" cy="364" r="4" fill="#206095"/>
<circle cx="164" cy="364" r="4" fill="#206095"/>
<circle cx="154" cy="364" r="4" fill="#206095"/>
<circle cx="144" cy="364" r="4" fill="#206095"/>
<circle cx="134" cy="364" r="4" fill="#206095"/>
<circle cx="124" cy="364" r="4" fill="#206095"/>
<circle cx="124" cy="374" r="4" fill="#206095"/>
<circle cx="114" cy="374" r="4" fill="#206095"/>
</svg>
